<?xml version="1.0" encoding="iso-8859-1"?>
<!-- Generator: Adobe Illustrator 18.0.0, SVG Export Plug-In . SVG Version: 6.00 Build 0)  -->
<!DOCTYPE svg PUBLIC "-//W3C//DTD SVG 1.1//EN" "http://www.w3.org/Graphics/SVG/1.1/DTD/svg11.dtd">
<svg version="1.1" id="_x31_" xmlns="http://www.w3.org/2000/svg" xmlns:xlink="http://www.w3.org/1999/xlink" x="0px" y="0px"
	 viewBox="0 0 512 512" style="enable-background:new 0 0 512 512;" xml:space="preserve">
<pattern id="image" patternUnits="userSpaceOnUse" width="512" height="512">
	<g>
		<rect style="fill:#A2D3B0;" width="512" height="512"/>
		<path style="opacity:0.1;fill:#040000;" d="M512,277.043V512H311.808l-63.488-63.487c0-0.051-0.051-0.051-0.051-0.051
			L228.608,428.8l-0.154-0.153c-0.717-2.458-1.075-5.069-1.075-7.783v-62.208h-1.485v-21.043h9.984v-36.454
			c-29.696-5.017-55.654-20.89-73.677-43.417l36.454-36.454l57.549-57.6l38.4-38.4h0.051v-0.052l32.768-32.768L512,277.043z"/>
		<g>
			<path style="fill:#92D1D0;" d="M256.011,104.652c-40.566,0-73.45,32.885-73.45,73.45c0,40.565,32.884,73.45,73.45,73.45
				c0.068,0,0.135-0.005,0.203-0.005v-146.89C256.145,104.657,256.078,104.652,256.011,104.652z"/>
			<path style="fill:#7FCACB;" d="M329.46,178.102c0-40.497-32.775-73.334-73.247-73.445v146.89
				C296.685,251.437,329.46,218.6,329.46,178.102z"/>
			<path style="fill:#B2B2B2;" d="M277.32,284.756v73.439h-42.672v-73.439c0.87,0.218,1.739,0.435,2.609,0.653
				c0.38,0.108,0.761,0.217,1.142,0.271c0.489,0.109,0.979,0.218,1.413,0.326c0.652,0.163,1.25,0.272,1.903,0.381
				c0.218,0.054,0.489,0.054,0.761,0.108c0.652,0.109,1.304,0.272,1.957,0.326h0.218c0.49,0.108,1.033,0.163,1.468,0.217
				c0.217,0,0.38,0.055,0.543,0.055c0.544,0.108,1.142,0.162,1.74,0.162c0.435,0.109,0.87,0.109,1.359,0.164
				c0.109,0,0.272,0.054,0.435,0.054c0.543,0,1.033,0.054,1.576,0.054c0.272,0.054,0.598,0.054,0.924,0.054h0.055
				c1.033,0.054,2.12,0.109,3.207,0.109h0.054c0.598,0,1.141,0,1.685-0.054h0.978c0.326,0,0.652,0,0.978-0.054h0.218
				c0.978-0.054,1.957-0.108,2.881-0.218c0.489-0.054,0.978-0.109,1.467-0.109c0.49-0.054,0.924-0.162,1.359-0.218
				c0.272,0,0.543,0,0.815-0.054c0.435-0.054,0.978-0.163,1.468-0.217c0.109,0,0.272,0,0.38-0.055
				c0.272-0.054,0.652-0.108,0.924-0.163h0.272c0,0,0-0.054,0.054-0.054c0.054,0,0.054,0,0.108,0
				c0.326-0.054,0.707-0.108,1.033-0.218c0.109,0,0.163-0.054,0.217-0.054c0.38,0,0.816-0.109,1.142-0.218
				c0.109,0,0.218,0,0.326-0.054c0.054,0,0.163-0.054,0.218-0.054c0.38-0.054,0.707-0.109,1.033-0.218
				c0.435-0.054,0.815-0.163,1.196-0.271c0.271-0.055,0.598-0.109,0.869-0.218c0.163-0.054,0.326-0.054,0.435-0.108
				C276.504,284.974,276.939,284.865,277.32,284.756z"/>
			<path style="fill:#C4C4C4;" d="M277.32,321.448v73.439h-42.672v-73.439c6.849,1.903,13.97,2.935,21.363,2.935
				C263.404,324.384,270.579,323.351,277.32,321.448z"/>
			<line style="fill:none;" x1="257.724" y1="319.966" x2="256.214" y2="321.477"/>
			<g>
				<path style="fill:#FFFFFF;" d="M211.419,184.818c-3.523,0.081-7.349-5.031-7.749-14.507c-0.157-4.677,0.655-10.339,2.951-16.213
					c2.326-5.833,6.05-11.886,11.214-17.105c5.219-5.163,11.272-8.887,17.104-11.213c5.874-2.297,11.536-3.109,16.213-2.951
					c9.476,0.399,14.588,4.226,14.507,7.749c-0.04,3.809-4.614,6.92-10.214,10.681c-5.682,3.773-12.369,8.428-18.686,14.657
					c-6.229,6.319-10.884,13.005-14.658,18.688C218.338,180.204,215.227,184.778,211.419,184.818z"/>
			</g>
			<path style="fill:#1F2F35;" d="M256.21,461.51L256.21,461.51c-16.821,0-30.457-13.637-30.457-30.458v-85.987h60.921v85.982
				C286.674,447.871,273.035,461.51,256.21,461.51z"/>
			<path style="fill:#25353A;" d="M256.119,345.04v116.492c-2.881,0-5.654-0.38-8.263-1.141c-0.217-0.055-0.489-0.109-0.707-0.218
				c-9.839-2.99-17.612-10.926-20.385-20.874c-0.761-2.61-1.141-5.382-1.141-8.263V345.04H256.119z"/>
			<rect x="224.048" y="342.649" style="fill:#E7CA52;" width="33.648" height="22.342"/>
			<rect x="257.724" y="342.661" style="fill:#CCB243;" width="30.26" height="22.372"/>
			<g>
				<path style="fill:#D8D8D8;" d="M182.572,178.103c0,15.221,4.62,29.354,12.557,41.042c13.209,19.569,35.551,32.397,60.882,32.397
					v54.196c-7.284,0-14.405-0.598-21.363-1.794c-31.528-5.326-59.088-22.178-78.223-46.096
					c-17.558-21.853-28.049-49.576-28.049-79.745c0-70.504,57.132-127.635,127.635-127.635v54.197
					C215.459,104.665,182.572,137.551,182.572,178.103z"/>
				<path style="fill:#C4C4C4;" d="M383.625,178.102c0-70.479-57.135-127.614-127.614-127.614c-0.004,0-0.008,0-0.012,0v54.164
					c0.004,0,0.008,0,0.012,0c40.565,0,73.45,32.885,73.45,73.45c0,40.565-32.884,73.45-73.45,73.45c-0.004,0-0.008,0-0.012,0v54.164
					c0.004,0,0.008,0.001,0.012,0.001C326.49,305.717,383.625,248.582,383.625,178.102z"/>
			</g>
		</g>
	</g>
</pattern>
<circle cx="256" cy="256" r="256" fill="url(#image)"></circle>
</svg>
