<?xml version="1.0" encoding="iso-8859-1"?>
<!-- Generator: Adobe Illustrator 18.0.0, SVG Export Plug-In . SVG Version: 6.00 Build 0)  -->
<!DOCTYPE svg PUBLIC "-//W3C//DTD SVG 1.1//EN" "http://www.w3.org/Graphics/SVG/1.1/DTD/svg11.dtd">
<svg version="1.1" id="_x31_" xmlns="http://www.w3.org/2000/svg" xmlns:xlink="http://www.w3.org/1999/xlink" x="0px"
     y="0px"
     viewBox="0 0 512 512" style="enable-background:new 0 0 512 512;" xml:space="preserve">
<pattern id="image" patternUnits="userSpaceOnUse" width="512" height="512">
	<g>
	<rect style="fill:#9CD1AB;" width="512" height="512"/>
        <path style="opacity:0.1;fill:#040000;" d="M512,223.693V512H263.322l-154.88-154.88l-34.714-34.714
		c-2.406-6.349-3.686-13.21-3.686-20.429c0-3.789,0.358-7.475,1.024-11.008l46.694-46.694c3.584-0.666,7.271-1.024,11.008-1.024
		c16.794,0,31.897,7.014,42.598,18.329l145.92-82.791c-1.638-5.376-2.509-11.059-2.509-16.998c0-32.41,26.266-58.727,58.726-58.727
		c7.834,0,15.36,1.536,22.221,4.352l32.102,32.103L512,223.693z"/>
        <g>
		<g>

				<rect x="196.036" y="288.163" transform="matrix(0.8826 0.4702 -0.4702 0.8826 176.8582 -103.5686)"
                      style="fill:#F2F2F2;" width="199.44" height="28.186"/>
		</g>
            <g>
			<polygon style="fill:#F2F2F2;" points="381.286,174.899 331.725,203.008 238.592,255.846 209.562,272.333 185.293,286.105
				135.731,314.214 121.805,289.741 171.367,261.581 317.286,178.79 367.36,150.374 			"/>
		</g>
            <g>
			<polygon style="fill:#F2F2F2;"
                     points="251.111,262.496 222.08,278.973 209.584,272.314 238.616,255.849 			"/>
		</g>
            <g style="opacity:0.08;">
			<polygon style="fill:#040000;"
                     points="251.111,262.496 222.08,278.973 209.584,272.314 238.616,255.849 			"/>
		</g>
            <g>
			<path style="fill:#DFEED9;" d="M187.495,301.978c0,32.409-26.266,58.726-58.727,58.726c-7.117,0-13.977-1.28-20.326-3.584
				c-16.026-5.939-28.775-18.688-34.714-34.714c-2.406-6.349-3.686-13.21-3.686-20.429c0-3.789,0.358-7.475,1.024-11.008
				c4.506-23.603,23.091-42.189,46.694-46.694c3.584-0.666,7.271-1.024,11.008-1.024c16.794,0,31.897,7.014,42.598,18.329
				c6.503,6.809,11.366,15.206,13.926,24.524C186.727,291.174,187.495,296.448,187.495,301.978z"/>
		</g>
            <g>
			<path style="fill:#DFEED9;" d="M432.23,161.792c0,32.409-26.317,58.726-58.727,58.726c-16.384,0-31.181-6.707-41.779-17.511
				c-6.656-6.707-11.674-15.001-14.438-24.217c-1.638-5.376-2.509-11.059-2.509-16.998c0-32.41,26.266-58.727,58.726-58.727
				c7.834,0,15.36,1.536,22.221,4.352c14.541,5.991,26.163,17.562,32.102,32.103C430.643,146.381,432.23,153.907,432.23,161.792z"/>
		</g>
            <g>
			<circle style="fill:#DFEED9;" cx="383.21" cy="350.186" r="58.72"/>
		</g>
	</g>
</g>
</pattern>
    <circle cx="256" cy="256" r="256" fill="url(#image)"/>
</svg>
